<?xml version="1.0" standalone="no"?><!DOCTYPE svg PUBLIC "-//W3C//DTD SVG 1.1//EN" "http://www.w3.org/Graphics/SVG/1.1/DTD/svg11.dtd"><svg class="icon" width="200px" height="200.00px" viewBox="0 0 1024 1024" version="1.1" xmlns="http://www.w3.org/2000/svg"><path d="M512.000109 0c192.533787 0 348.595745 156.061957 348.595745 348.595745 0 95.602383-38.498043 182.228426-100.83132 245.215319-35.665702 44.81634-76.821787 95.319149-110.199829 153.796085-52.027915 91.136-97.890043 180.572596-137.564596 268.266213-37.474043-83.859064-83.33617-173.273872-137.564596-268.266213-35.796426-62.725447-81.048511-116.169532-117.389617-161.312681A347.288511 347.288511 0 0 1 163.404364 348.595745C163.404364 156.061957 319.466322 0 512.000109 0z" fill="#FFFFFF" /><path d="M512.000109 348.595745m-305.021277 0a305.021277 305.021277 0 1 0 610.042554 0 305.021277 305.021277 0 1 0-610.042554 0Z" fill="#3298FF" /><path d="M411.343088 491.563574l1.525106-24.09668 10.370723 12.505872c4.466383 6.318298 10.893617 9.45566 19.216341 9.45566H662.985641l3.050213-37.822639h-189.723234v-39.042723h32.637276V374.740426h-32.637276v-37.517617h37.212595v-37.822639h-45.143149v-38.432681h38.12766v-37.822638h-38.12766v-25.926808h-47.278297v25.926808H380.230917v37.822638h40.872852v38.432681H373.215428v37.822639h59.174128v88.45617l-15.861107-18.606298 2.745192-46.973277h-38.12766l-3.965276 64.969532-3.965277 66.494638h38.12766z m225.410723-51.853617c2.83234 0 5.75183-0.457532 8.693106-1.372595 2.941277-0.915064 5.642894-2.244085 8.083064-3.965277a21.046468 21.046468 0 0 0 5.947915-6.405447 16.558298 16.558298 0 0 0 2.28766-8.693106v-57.954043H614.182237v40.56783h-43.618043v-68.934808h64.359489c2.83234 0 5.75183-0.457532 8.693107-1.372596 2.941277-0.915064 5.642894-2.244085 8.083064-3.965277a21.046468 21.046468 0 0 0 5.947915-6.405447 16.558298 16.558298 0 0 0 2.287659-8.693106V210.028936h-138.479659v37.822638h91.201361v47.278298h-64.359489c-2.83234 0-5.75183 0.457532-8.693107 1.372596a28.497702 28.497702 0 0 0-8.083063 3.965277 21.046468 21.046468 0 0 0-5.947915 6.405446 16.558298 16.558298 0 0 0-2.28766 8.693107v102.487149c0 6.710468 2.592681 11.982979 7.778043 15.861106 5.185362 3.85634 10.937191 5.795404 17.233702 5.795404l88.45617-0.305021v0.305021z" fill="#FFFFFF" /></svg>