<?xml version="1.0" standalone="no"?><!DOCTYPE svg PUBLIC "-//W3C//DTD SVG 1.1//EN" "http://www.w3.org/Graphics/SVG/1.1/DTD/svg11.dtd"><svg class="icon" width="200px" height="200.00px" viewBox="0 0 1024 1024" version="1.1" xmlns="http://www.w3.org/2000/svg"><path fill="#f4ea2a" d="M528 128A112.448 112.448 0 0 0 416 240c0 61.504 50.496 112 112 112S640 301.504 640 240 589.504 128 528 128z m0 64c26.88 0 48 21.12 48 48S554.88 288 528 288 480 266.88 480 240 501.12 192 528 192z m-118.016 168c-16.48 1.376-31.872 9.28-42.976 22.016L308.992 448.96a64.32 64.32 0 0 0-15.008 31.008L272 604l63.008 11.008 21.984-124 58.016-67.008H416l24.992 4.992-37.984 172a63.488 63.488 0 0 0 11.008 51.008L590.976 896h79.04l-204-282.016 37.984-172.992 15.008 3.008 24 84a64.32 64.32 0 0 0 38.976 42.016l113.024 42.976 21.984-60-112-42.976-24.992-84.032a63.232 63.232 0 0 0-48.992-44.992l-104-20a64.832 64.832 0 0 0-16.992-0.992z m-10.976 344.992l-16 62.016L290.016 896h78.976l74.016-100.992 4-19.008z" /></svg>